<svg id="Layer_1" enable-background="new 0 0 512 512" height="512" viewBox="0 0 512 512" width="512" xmlns="http://www.w3.org/2000/svg"><g><path fill="white" d="m256 0c-141.159 0-256 114.841-256 256s114.841 256 256 256 256-114.841 256-256-114.841-256-256-256zm0 482c-124.617 0-226-101.383-226-226s101.383-226 226-226 226 101.383 226 226-101.383 226-226 226z"/><circle cx="207.8" cy="288.133" r="15" fill="white"/><circle cx="304.2" cy="288.133" r="15" fill="white"/><path d="m367.4 127.467c0-25.806-20.856-47.133-47.134-47.133-25.989 0-47.133 21.144-47.133 47.133v60.544c-5.631-.805-11.349-1.236-17.134-1.236s-11.503.431-17.134 1.236v-60.544c0-25.807-20.854-47.133-47.133-47.133-25.989 0-47.134 21.144-47.134 47.133v118.455c-20.486 25.337-32.133 57.324-32.133 90.411 0 52.567 42.767 95.333 95.333 95.333h96.4c52.566 0 95.333-42.766 95.333-95.333 0-33.087-11.647-65.075-32.133-90.411v-118.455zm-64.266 0c0-9.447 7.686-17.133 17.133-17.133 9.44 0 17.134 7.638 17.134 17.133v90.5l-9.74-7.305c-7.683-5.763-15.905-10.515-24.526-14.23v-68.965zm-128.534 0c0-9.447 7.687-17.133 17.134-17.133 9.438 0 17.133 7.637 17.133 17.133v68.966c-8.621 3.714-16.844 8.467-24.526 14.229l-9.74 7.305v-90.5zm194.933 208.866c0 36.025-29.309 65.333-65.333 65.333h-33.2v-50.333h9.1c8.284 0 15-6.716 15-15s-6.716-15-15-15h-48.2c-8.284 0-15 6.716-15 15s6.716 15 15 15h9.1v50.333h-33.2c-36.024 0-65.333-29.308-65.333-65.333 0-35.546 16.977-69.5 45.413-90.827l14.46-10.846c15.602-11.701 34.156-17.886 53.66-17.886s38.059 6.185 53.66 17.887l14.46 10.845c28.437 21.327 45.413 55.281 45.413 90.827z" fill="white"/></g></svg>